<svg version="1.1" id="Layer_1" width="847px" height="575px" xmlns="http://www.w3.org/2000/svg" xmlns:xlink="http://www.w3.org/1999/xlink" x="0px" y="0px"
	 viewBox="0 0 846.96 574.41" style="enable-background:new 0 0 846.96 574.41;" xml:space="preserve">
<style type="text/css">
	.st0{fill:#BFE1FB;}
	.st1{fill:#E6E6E3;}
	.st2{fill:#FE4A5A;}
	.st3{fill:#00F4D9;}
	.st4{fill:#F7F6F4;}
	.st5{fill:#0091FF;}
	.st6{fill:#999999;}
	.st7{opacity:0.46;fill:#666666;}
	.st8{fill:#4D4D4D;}
	.st9{fill:#B0BBD1;}
	.st10{fill:#F2F2F2;}
	.st11{fill:#E6E6E6;}
	.st12{opacity:0.25;fill:#0D0D0D;}
	.st13{fill:#DBDBDB;}
	.st14{fill:#FFFFFF;}
	.st15{fill:#FDCA8D;}
	.st16{fill:#023444;}
	.st17{fill:#6ECBF9;}
	.st18{fill:#43B7FF;}
	.st19{opacity:0.5;}
	.st20{fill:#8E9AA3;}
	.st21{fill:#19BFA7;}
	.st22{opacity:0.65;fill:#E6E6E6;}
	.st23{fill:#0D0D0D;}
	.st24{opacity:0.35;}
	.st25{fill:#FDFEFF;}
	.st26{fill:#61B6F6;}
	.st27{fill:#DCE2E2;}
	.st28{fill:#CE3446;}
	.st29{fill:#A32437;}
	.st30{fill:#89B7D3;}
	.st31{fill:#5995B2;}
	.st32{fill:#1A9681;}
</style>
<g id="XMLID_103_">
	<g id="XMLID_5_">
		<g id="XMLID_1558_">
			<g>
				<path id="XMLID_123_" class="st0" d="M556.69,261.11c16.97-9.05,37.01-17.96,56.84-26.03c1.39,2.06,12.2,17.05,34.5,20.44
					c-8.14,6.4-16.62,12.23-25.45,17.15c-6.68,3.73-13.61,6.86-20.62,9.29C582.28,282.82,561.15,265.07,556.69,261.11z"/>
				<path id="XMLID_122_" class="st0" d="M615.19,234.41c37.77-15.29,74.44-27.46,87.29-31.61c-4.66,6.54-11.8,12.73-17.3,18.43
					c-6.35,6.58-12.84,13.05-19.55,19.24c-5.11,4.71-10.35,9.28-15.75,13.6C628.43,251.32,617.47,237.59,615.19,234.41z"/>
				<path id="XMLID_121_" class="st0" d="M638.78,223.54c-20.62,7.81-43.17,16.97-63.5,26.59c3.16-6.19,17.32-32.7,34.4-45.67
					c17.83-7.15,36.33-10.58,53.68-10.33c-12.82,11.6-24.53,29.18-24.65,29.36L638.78,223.54z"/>
				<path id="XMLID_120_" class="st0" d="M665.47,194.18c2.55,0.08,5.07,0.24,7.56,0.48c9.59,0.93,21.35,2,29.58,6.46
					c-9.67,3.12-33.73,11.08-61.65,21.59C644.21,218.04,654.58,203.63,665.47,194.18z"/>
				<path id="XMLID_119_" class="st0" d="M573.26,250.96l0.16,0.06c-14.7,7.02-28.14,14.28-38.73,21.41
					c0.47-2.56,2.24-5.91,5.34-10.72c16.69-25.91,40.05-44.3,65.03-55.3C587.18,222.36,573.41,250.65,573.26,250.96z"/>
				<path id="XMLID_118_" class="st0" d="M597.1,283.52c-9.6,2.86-19.26,4.35-28.55,4.16c-8.79-0.18-17.27-1.85-24.73-5.44
					c-5.83-2.81-8.93-4.74-9.23-7.98c5.97-4.07,12.88-8.18,20.44-12.26C557.99,264.74,577.28,281.85,597.1,283.52z"/>
				<g id="XMLID_117_">
					<path class="st1" d="M573.42,251.01l-0.16-0.06c0.15-0.31,13.92-28.59,31.8-44.55c1.53-0.68,3.07-1.32,4.62-1.94
						c-17.08,12.97-31.24,39.48-34.4,45.67c20.32-9.62,42.88-18.78,63.5-26.59l-0.07-0.04c0.12-0.18,11.83-17.76,24.65-29.36
						c0.71,0.01,1.41,0.03,2.11,0.05c-10.9,9.45-21.26,23.86-24.5,28.53c27.92-10.52,51.98-18.47,61.65-21.59
						c0.24,0.13,0.5,0.26,0.73,0.4c-0.28,0.43-0.58,0.85-0.88,1.28c-12.84,4.15-49.51,16.32-87.29,31.61
						c2.28,3.19,13.24,16.91,34.69,19.66c-0.61,0.49-1.23,0.98-1.84,1.46c-22.3-3.39-33.12-18.39-34.5-20.44
						c-19.83,8.07-39.87,16.98-56.84,26.03c4.46,3.96,25.58,21.71,45.27,20.85c-1.62,0.56-3.24,1.08-4.87,1.56
						c-19.81-1.67-39.11-18.79-42.07-21.52c-7.56,4.09-14.47,8.19-20.44,12.26c-0.05-0.57-0.02-1.18,0.1-1.84
						C545.28,265.29,558.72,258.04,573.42,251.01z"/>
				</g>
			</g>
		</g>
		<g id="XMLID_1536_">
			<path id="XMLID_1555_" class="st2" d="M534.56,236.34c19.71-19.7,44.34-40.67,69.29-60.47c3.75,1.99,32.18,16.15,69.76,9.92
				c-7.89,12.1-16.73,23.62-26.83,34.15c-7.64,7.97-16.12,15.28-25.25,21.73C591.29,252.13,544.58,239.33,534.56,236.34z"/>
			<path id="XMLID_1552_" class="st2" d="M605.94,174.22c47.58-37.6,95.82-70.67,112.79-82.11c-2.32,10.62-8.79,21.98-13.07,31.92
				c-4.94,11.48-10.17,22.88-15.97,34.04c-4.41,8.49-9.16,16.85-14.32,24.97C639.63,189.69,611.95,177.24,605.94,174.22z"/>
			<path id="XMLID_1549_" class="st2" d="M634.64,149.04c-26.39,19.84-54.77,42.33-79.3,64.35c0.22-9.46,2.18-50.29,19.07-75.08
				c22.52-17.66,48.91-30.85,76.32-38.77c-11.26,21.01-16.19,49.18-16.24,49.48L634.64,149.04z"/>
			<path id="XMLID_1546_" class="st2" d="M654.09,98.6c4.06-1.11,8.14-2.1,12.23-2.97c15.75-3.36,35.03-7.56,51.35-5.74
				c-12.78,8.61-44.46,30.26-80.23,57.05C638.96,139.39,644.21,115.93,654.09,98.6z"/>
			<path id="XMLID_1543_" class="st2" d="M552.8,215.42l0.3,0c-17.69,16.01-33.24,31.72-44.41,45.93c-1.22-3.52-1-8.66,0.19-16.33
				c6.39-41.26,28.99-76.01,59.77-102.01C552.79,172.03,552.79,214.96,552.8,215.42z"/>
			<path id="XMLID_1540_" class="st2" d="M615.08,246c-12.87,8.23-26.89,14.74-41.62,18.91c-13.93,3.94-28.5,5.82-42.97,4.74
				c-11.3-0.84-17.63-1.86-20.57-5.88c6.26-8.07,13.96-16.63,22.7-25.48C539.37,240.4,582.72,253.25,615.08,246z"/>
			<path id="XMLID_1537_" class="st1" d="M553.1,215.42l-0.3,0c0-0.46-0.01-43.39,15.85-72.41c1.89-1.6,3.81-3.16,5.77-4.69
				c-16.89,24.79-18.85,65.62-19.07,75.08c24.54-22.02,52.92-44.51,79.3-64.35l-0.15-0.02c0.05-0.29,4.98-28.46,16.24-49.48
				c1.12-0.32,2.24-0.64,3.36-0.94c-9.88,17.33-15.13,40.78-16.64,48.34c35.77-26.79,67.45-48.44,80.23-57.05
				c0.48,0.05,0.98,0.09,1.45,0.16c-0.11,0.68-0.25,1.37-0.4,2.06c-16.97,11.44-65.21,44.5-112.79,82.11
				c6.01,3.02,33.69,15.47,69.44,8.82c-0.59,0.92-1.18,1.84-1.77,2.75c-37.58,6.23-66.01-7.93-69.76-9.92
				c-24.95,19.8-49.58,40.77-69.29,60.47c10.02,2.98,56.73,15.78,86.96,5.34c-2.11,1.49-4.26,2.93-6.44,4.32
				c-32.36,7.25-75.71-5.6-82.45-7.71c-8.74,8.85-16.45,17.41-22.7,25.48c-0.52-0.71-0.93-1.51-1.24-2.42
				C519.86,247.14,535.4,231.43,553.1,215.42z"/>
		</g>
	</g>
	<g id="XMLID_6_">
		<g id="XMLID_1596_">
			<g>
				<path id="XMLID_115_" class="st3" d="M48.91,128.45c-0.52-7.63,0.17-16.41,1.73-26.87L82.6,142.1
					C77,140.31,62.53,135.39,48.91,128.45z"/>
				<path id="XMLID_114_" class="st3" d="M99.59,160.74c1.3-13.98-3.32-35.31-7.02-49.52c9.8,6.74,16.3,17.5,21.98,34.89
					c11.34,34.71,23.74,16.35,24.93,11.18c1.19-5.17-2.27-26.15,12.09-27.08c0.74-0.05,1.48-0.01,2.22,0.08
					c13.04,33.19,12.84,100.6,12.63,115.19L99.59,160.74z"/>
				<path id="XMLID_113_" class="st3" d="M150.98,228.82c-6.37,1.04-38.06,4.07-92.96-24.38c4.63-12.58,23.58-4.97,28.77-4.99
					c5.31-0.03,25.94-8.1-5.43-26.78c-21.33-12.7-30.42-24.22-32.26-42c16.58,8.36,33.94,13.6,35.59,14.09L150.98,228.82z"/>
				<path id="XMLID_112_" class="st3" d="M97.79,158.47l-45.65-57.89c16.71,1.23,28.81,3.66,38.08,9.16
					C93.79,123.22,98.56,144.34,97.79,158.47z"/>
				<path id="XMLID_111_" class="st3" d="M155.92,130.74c13.03,3.88,26.38,28.3,36.22,64.07c3.02,10.96,5.01,22.05,6.58,33.08
					c1.55,10.85,2.65,21.7,3.47,32.51c0.61,8.06,1.13,16.14,1.35,24.16c0.04,1.63-1.21,3.54-2.65,4.68l-32.58-41.32
					C168.52,238.94,169.71,166.97,155.92,130.74z"/>
				<path id="XMLID_110_" class="st3" d="M57.49,206.27c58.06,30.06,90.59,25.23,94.93,24.39l46.88,59.45
					c-0.06,0.02-0.11,0.04-0.17,0.05c-1.11,0.28-2.36-0.04-3.54-0.46c-2.6-0.93-5.22-1.57-7.85-2.31c-4.34-1.22-8.68-2.48-13.01-3.8
					c-10.44-3.17-20.86-6.63-31.19-10.52c-10.57-3.98-21.1-8.39-31.28-13.78c-0.14-0.08-0.29-0.15-0.43-0.23
					C76.28,240.1,54.69,220.05,57.49,206.27z"/>
				<g id="XMLID_109_">
					<path class="st4" d="M57.49,206.27c0.07-0.33,0.13-0.65,0.23-0.97c0.09-0.3,0.19-0.58,0.3-0.86
						c54.9,28.45,86.59,25.42,92.96,24.38l-66.29-84.07c-1.65-0.49-19.01-5.72-35.59-14.09c-0.08-0.73-0.14-1.47-0.19-2.22
						C62.53,135.39,77,140.31,82.6,142.1l-31.96-40.52c0.03-0.23,0.06-0.44,0.1-0.67c0.06-0.31,0.19-0.39,0.51-0.4
						c0.31,0.02,0.6,0.05,0.9,0.07l45.65,57.89c0.77-14.13-4-35.24-7.57-48.73c0.8,0.47,1.58,0.96,2.34,1.48
						c3.71,14.21,8.33,35.54,7.02,49.52l66.82,84.74c0.21-14.59,0.41-82-12.63-115.19c0.71,0.09,1.42,0.23,2.14,0.45
						c13.78,36.23,12.6,108.2,12.39,117.16l32.58,41.32c-0.52,0.41-1.07,0.73-1.59,0.89l-46.88-59.45
						C148.08,231.5,115.55,236.33,57.49,206.27z"/>
				</g>
			</g>
		</g>
		<g id="XMLID_1498_">
			<g>
				<g id="XMLID_108_">
					<path class="st5" d="M80.14,233.28c-1.19-4.49-1.79-9.8-2.07-16.22l23.73,20.48C98.26,237.11,89.06,235.85,80.14,233.28z"/>
				</g>
				<g id="XMLID_107_">
					<path class="st5" d="M114.08,246.69c-0.84-8.48-6.05-20.67-9.9-28.72c6.62,2.89,11.74,8.55,17.13,18.27
						c10.76,19.39,16.04,7.01,16.15,3.79c0.11-3.22-4.37-15.33,4.08-17.54c0.43-0.11,0.88-0.18,1.33-0.21
						c11.6,18.29,19.26,58.5,20.81,67.23L114.08,246.69z"/>
				</g>
				<g id="XMLID_106_">
					<path class="st5" d="M152.58,281.35c-3.68,1.35-22.22,6.81-58.24-3.82c1.31-8.03,13.49-5.68,16.58-6.29
						c3.16-0.63,14.53-7.82-6.33-15.34c-14.18-5.11-20.93-10.93-24.08-21.32c10.85,3.07,21.8,4.19,22.85,4.29L152.58,281.35z"/>
				</g>
				<g id="XMLID_105_">
					<path class="st5" d="M112.75,245.54l-33.9-29.25c10.11-1.2,17.6-1.14,23.76,1.07C106.3,224.99,111.58,237.03,112.75,245.54z"/>
				</g>
				<g id="XMLID_104_">
					<path class="st5" d="M144.21,222.3c8.21,0.81,18.99,13.83,28.99,34.02c3.06,6.19,5.53,12.57,7.74,18.96
						c2.17,6.29,4.08,12.63,5.82,18.98c1.29,4.74,2.54,9.49,3.59,14.25c0.21,0.97-0.31,2.25-1.04,3.09l-24.19-20.88
						C164.2,285.37,156.61,242.32,144.21,222.3z"/>
				</g>
				<g id="XMLID_101_">
					<path class="st5" d="M94.24,278.69c38.08,11.23,56.92,4.6,59.42,3.59l34.81,30.04c-0.03,0.02-0.06,0.04-0.09,0.05
						c-0.63,0.29-1.41,0.25-2.16,0.14c-1.66-0.25-3.29-0.34-4.95-0.47c-2.73-0.22-5.46-0.48-8.2-0.76
						c-6.59-0.69-13.2-1.55-19.81-2.68c-6.76-1.16-13.55-2.57-20.24-4.61c-0.09-0.03-0.19-0.06-0.28-0.09
						C109.34,296.69,94.15,287.23,94.24,278.69z"/>
				</g>
				<g id="XMLID_100_">
					<path class="st4" d="M94.24,278.69c0-0.2,0-0.4,0.02-0.6c0.02-0.19,0.05-0.37,0.08-0.55c36.02,10.63,54.56,5.17,58.24,3.82
						l-49.22-42.48c-1.04-0.1-12-1.22-22.85-4.29c-0.13-0.43-0.25-0.86-0.37-1.3c8.92,2.57,18.12,3.83,21.66,4.26l-23.73-20.48
						c-0.01-0.14-0.01-0.27-0.02-0.41c0-0.19,0.07-0.26,0.26-0.3c0.18-0.02,0.36-0.04,0.54-0.06l33.9,29.25
						c-1.17-8.51-6.45-20.55-10.13-28.18c0.53,0.19,1.05,0.39,1.57,0.62c3.85,8.05,9.06,20.23,9.9,28.72l49.62,42.82
						c-1.56-8.72-9.21-48.94-20.81-67.23c0.43-0.03,0.88-0.03,1.33,0.02c12.4,20.01,19.99,63.06,20.9,68.43l24.19,20.88
						c-0.26,0.31-0.55,0.56-0.85,0.71l-34.81-30.04C151.16,283.29,132.32,289.92,94.24,278.69z"/>
				</g>
			</g>
		</g>
	</g>
	<g id="XMLID_1098_">
		<g id="XMLID_1256_">
			<rect id="XMLID_1269_" x="330.71" y="396.93" class="st6" width="77.49" height="85.03"/>
			<rect id="XMLID_1266_" x="330.71" y="396.32" class="st7" width="77.49" height="31.94"/>
			<path id="XMLID_4_" class="st8" d="M555.2,417.11H183.71c-8.8,0-15.94-7.14-15.94-15.94v-264.2c0-8.8,7.14-15.94,15.94-15.94
				H555.2c8.8,0,15.94,7.14,15.94,15.94v264.2C571.14,409.98,564,417.11,555.2,417.11z"/>
			<rect id="XMLID_1260_" x="181.95" y="140.47" class="st9" width="375.01" height="257.21"/>
			<path id="XMLID_1257_" class="st8" d="M479.15,487.11H259.76l1.62-2.35c6.14-8.9,22.88-14.87,41.69-14.87h132.76
				c18.81,0,35.55,5.97,41.69,14.87L479.15,487.11z"/>
		</g>
		<polygon id="XMLID_1253_" class="st10" points="550.36,546.63 187.22,546.63 217.87,482.36 516.89,482.36 		"/>
		<polygon id="XMLID_1250_" class="st11" points="530.07,536.61 206.46,536.61 229.08,487.64 507.45,487.64 		"/>
		<g id="XMLID_1102_">
			<g>
				<g id="XMLID_408_">
					<polygon class="st10" points="443.73,531.81 291.37,531.81 293.63,523.65 441.49,523.65 					"/>
				</g>
				<g id="XMLID_404_">
					<polygon class="st10" points="241.49,531.81 218.62,531.81 222.25,523.65 245.1,523.65 					"/>
				</g>
				<g id="XMLID_403_">
					<polygon class="st10" points="276.44,520.77 223.56,520.77 227.39,512.62 278.99,512.61 					"/>
				</g>
				<g id="XMLID_401_">
					<polygon class="st10" points="266.56,509.25 228.82,509.25 232.81,501.1 269.02,501.09 					"/>
				</g>
				<g id="XMLID_400_">
					<polygon class="st10" points="509.02,509.25 470.41,509.25 467.94,501.09 505.32,501.09 					"/>
				</g>
				<g id="XMLID_399_">
					<polygon class="st10" points="301.37,509.25 279.07,509.25 281.33,501.09 303.06,501.09 					"/>
				</g>
				<g id="XMLID_398_">
					<polygon class="st10" points="256.59,497.72 234.29,497.72 237.86,489.56 259.91,489.56 					"/>
				</g>
				<g id="XMLID_397_">
					<polygon class="st10" points="288.79,497.72 266.5,497.72 269.58,489.56 291.19,489.56 					"/>
				</g>
				<g id="XMLID_396_">
					<polygon class="st10" points="318.24,497.72 295.94,497.72 298.12,489.56 319.73,489.56 					"/>
				</g>
				<g id="XMLID_395_">
					<polygon class="st10" points="348.25,497.72 325.96,497.72 327.21,489.56 348.82,489.56 					"/>
				</g>
				<g id="XMLID_394_">
					<polygon class="st10" points="377.99,497.72 355.69,497.72 356.03,489.56 377.64,489.56 					"/>
				</g>
				<g id="XMLID_393_">
					<polygon class="st10" points="408,497.72 385.7,497.72 385.12,489.56 406.73,489.56 					"/>
				</g>
				<g id="XMLID_392_">
					<polygon class="st10" points="437.45,497.72 415.15,497.72 413.66,489.56 435.27,489.56 					"/>
				</g>
				<g id="XMLID_391_">
					<polygon class="st10" points="467.46,497.72 445.16,497.72 442.75,489.56 464.36,489.56 					"/>
				</g>
				<g id="XMLID_390_">
					<polygon class="st10" points="503.75,497.81 481.56,497.72 478.24,489.56 499.85,489.56 					"/>
				</g>
				<g id="XMLID_389_">
					<polygon class="st10" points="331.96,509.25 309.66,509.25 311.14,501.09 332.86,501.09 					"/>
				</g>
				<g id="XMLID_388_">
					<polygon class="st10" points="363.12,509.25 340.82,509.25 341.5,501.09 363.23,501.09 					"/>
				</g>
				<g id="XMLID_387_">
					<polygon class="st10" points="393.71,509.25 371.41,509.25 371.3,501.09 393.03,501.09 					"/>
				</g>
				<g id="XMLID_384_">
					<polygon class="st10" points="424.58,509.25 402.28,509.25 401.39,501.09 423.11,501.09 					"/>
				</g>
				<g id="XMLID_383_">
					<polygon class="st10" points="455.17,509.25 432.87,509.25 431.19,501.09 452.92,501.09 					"/>
				</g>
				<g id="XMLID_377_">
					<polygon class="st10" points="317.1,520.77 292.22,520.77 294.48,512.61 318.61,512.61 					"/>
				</g>
				<g id="XMLID_365_">
					<polygon class="st10" points="347.96,520.77 324.52,520.77 325.81,512.61 348.56,512.61 					"/>
				</g>
				<g id="XMLID_364_">
					<polygon class="st10" points="514.43,520.77 461.55,520.77 459,512.61 510.74,512.61 					"/>
				</g>
				<g id="XMLID_362_">
					<polygon class="st10" points="411.43,520.77 386.56,520.77 386.02,512.61 410.16,512.61 					"/>
				</g>
				<g id="XMLID_361_">
					<polygon class="st10" points="379.99,520.77 355.12,520.77 355.51,512.61 379.64,512.61 					"/>
				</g>
				<g id="XMLID_357_">
					<polygon class="st10" points="442.29,520.77 418.85,520.77 417.36,512.61 440.11,512.61 					"/>
				</g>
				<g id="XMLID_355_">
					<polygon class="st10" points="280.79,531.81 257.92,531.81 261.18,523.65 283.37,523.65 					"/>
				</g>
				<g id="XMLID_352_">
					<polygon class="st10" points="478.04,531.81 455.17,531.81 452.59,523.65 474.78,523.65 					"/>
				</g>
				<g id="XMLID_351_">
					<polygon class="st10" points="519.49,531.81 496.99,531.81 493.38,523.65 515.58,523.65 					"/>
				</g>
			</g>
		</g>
		<path id="XMLID_1099_" class="st8" d="M546.42,554.31h-354.9c-2.36,0-4.27-1.91-4.27-4.27v-3.65h363.14v3.95
			C550.39,552.53,548.61,554.31,546.42,554.31z"/>
	</g>
	<rect id="XMLID_8_" x="244.23" y="32.53" class="st10" width="244.51" height="365.57"/>
	<g id="XMLID_1_">
		
			<rect id="XMLID_196_" x="249.74" y="23.58" transform="matrix(0.1179 -0.993 0.993 0.1179 206.1284 335.4762)" class="st12" width="84.3" height="56.27"/>
		
			<rect id="XMLID_194_" x="242.66" y="4.08" transform="matrix(0.993 0.1179 -0.1179 0.993 7.4017 -32.6606)" class="st13" width="74.22" height="84.3"/>
		<g id="Tz5hkt.tif">
			<g id="XMLID_283_">
				<path id="XMLID_405_" class="st5" d="M248.9,46.15c0.14-1.26,0.28-2.53,0.42-3.79c0.05-0.17,0.11-0.33,0.16-0.5
					c0.35-1.34,0.63-2.71,1.06-4.03c3.81-11.64,14.74-20.01,26.99-20.7c1.13-0.06,2.26-0.06,3.38-0.09
					c1.26,0.14,2.53,0.28,3.79,0.42c0.15,0.05,0.3,0.11,0.45,0.15c1.38,0.36,2.79,0.65,4.14,1.09c11.51,3.75,20,14.83,20.64,26.91
					c0.06,1.15,0.06,2.29,0.09,3.44c-0.14,1.26-0.28,2.53-0.42,3.79c-0.05,0.17-0.11,0.33-0.16,0.5c-0.48,1.7-0.83,3.44-1.45,5.09
					c-4.12,11.13-14.76,18.96-26.6,19.64c-1.13,0.06-2.26,0.06-3.38,0.09c-1.26-0.14-2.53-0.28-3.79-0.42
					c-0.15-0.05-0.3-0.11-0.45-0.15c-1.38-0.36-2.79-0.65-4.14-1.09C258.1,72.73,249.63,61.67,249,49.59
					C248.94,48.45,248.93,47.3,248.9,46.15z M277.17,68.25c5.28,0.5,10.13-0.71,14.49-3.75c0.21-0.15,0.4-0.51,0.39-0.76
					c-0.16-5.03-2.3-8.99-6.44-11.87c-0.36-0.25-0.66-0.3-1.09-0.16c-3.83,1.26-7.48,0.85-10.93-1.23
					c-0.35-0.21-0.63-0.22-0.99-0.08c-4.7,1.89-7.66,5.31-8.95,10.2c-0.1,0.37,0,0.62,0.26,0.9
					C267.51,65.35,271.93,67.58,277.17,68.25z M279.16,50.38c5.51,0.59,10.44-3.36,11.03-8.86c0.6-5.47-3.4-10.41-8.9-11
					c-5.44-0.58-10.39,3.42-10.98,8.87C269.73,44.85,273.71,49.79,279.16,50.38z"/>
				<path id="XMLID_339_" class="st14" d="M277.17,68.25c-5.23-0.67-9.66-2.9-13.26-6.76c-0.26-0.28-0.35-0.53-0.26-0.9
					c1.29-4.89,4.25-8.3,8.95-10.2c0.36-0.15,0.64-0.14,0.99,0.08c3.45,2.08,7.1,2.49,10.93,1.23c0.43-0.14,0.73-0.09,1.09,0.16
					c4.14,2.88,6.28,6.84,6.44,11.87c0.01,0.26-0.18,0.62-0.39,0.76C287.29,67.55,282.45,68.76,277.17,68.25z"/>
				<path id="XMLID_336_" class="st14" d="M279.16,50.38c-5.45-0.59-9.43-5.53-8.85-10.99c0.58-5.45,5.53-9.45,10.98-8.87
					c5.5,0.59,9.5,5.53,8.9,11C289.6,47.02,284.67,50.97,279.16,50.38z"/>
			</g>
		</g>
	</g>
	<g id="XMLID_677_">
		<polygon id="XMLID_689_" class="st15" points="46.47,550.24 32.39,562.77 50.45,568.15 		"/>
		<polygon id="XMLID_688_" class="st16" points="36.39,559.21 32.39,562.77 37.52,564.3 		"/>
		<path id="XMLID_685_" class="st2" d="M154.16,541.15l-2.35-10.59c-0.45-2.02,0.83-4.03,2.85-4.48l21.98-4.88
			c2.02-0.45,4.03,0.84,4.48,2.85l2.35,10.59c0.45,2.02-0.83,4.03-2.85,4.48l-21.98,4.88C156.62,544.45,154.61,543.17,154.16,541.15
			z"/>
		
			<rect id="XMLID_683_" x="45.3" y="538.28" transform="matrix(0.9762 -0.2168 0.2168 0.9762 -114.9993 34.6309)" class="st17" width="110.02" height="6.12"/>
		
			<rect id="XMLID_682_" x="46.62" y="544.26" transform="matrix(0.9762 -0.2168 0.2168 0.9762 -116.2625 35.0607)" class="st18" width="110.02" height="6.12"/>
		
			<rect id="XMLID_681_" x="47.95" y="550.23" transform="matrix(0.9762 -0.2168 0.2168 0.9762 -117.5264 35.4907)" class="st5" width="110.02" height="6.12"/>
		
			<rect id="XMLID_678_" x="147.94" y="533.12" transform="matrix(0.2169 0.9762 -0.9762 0.2169 645.2887 265.4972)" class="st10" width="18.42" height="3.7"/>
	</g>
	<g id="XMLID_13_" class="st19">
		<g>
			<g id="XMLID_132_">
				<rect id="XMLID_136_" x="270" y="206.55" class="st20" width="195.31" height="7.4"/>
				<rect id="XMLID_135_" x="270" y="159.48" class="st20" width="195.31" height="7.4"/>
				<rect id="XMLID_134_" x="270" y="174.61" class="st20" width="195.31" height="7.4"/>
				<rect id="XMLID_133_" x="270" y="221.34" class="st20" width="166.65" height="7.4"/>
			</g>
			<g id="XMLID_129_">
				<rect id="XMLID_131_" x="270" y="255.63" class="st20" width="195.31" height="7.4"/>
				<rect id="XMLID_130_" x="270" y="270.42" class="st20" width="166.65" height="7.4"/>
			</g>
			<g id="XMLID_126_">
				<rect id="XMLID_128_" x="270" y="309.42" class="st20" width="195.31" height="7.4"/>
				<rect id="XMLID_127_" x="270" y="324.21" class="st20" width="166.65" height="7.4"/>
			</g>
		</g>
	</g>
	<g id="XMLID_2_">
		<path id="XMLID_3_" class="st20" d="M365.57,102.16h-3.95L356,94.6h-2.56v7.56h-3.49V79.8h2.95h3.68c2.95,0,4.67,1.2,5.57,2.23
			c1.17,1.3,1.81,3.1,1.81,5.18c0,2.05-0.63,3.86-1.81,5.15c-0.54,0.6-1.39,1.3-2.59,1.72L365.57,102.16z M356.57,91.46
			c1.45,0,2.53-0.42,3.22-1.2c0.84-0.9,0.99-2.17,0.99-3.04c0-0.9-0.15-2.17-0.99-3.07c-0.69-0.78-1.78-1.17-3.22-1.17h-3.13v8.49
			H356.57z"/>
		<path id="XMLID_20_" class="st20" d="M371.8,88.9h8.16v3.16h-8.16v6.93h9.91v3.16h-9.94h-3.46V79.8h3.46h9.94v3.13h-9.91V88.9z"/>
		<path id="XMLID_22_" class="st20" d="M397.67,97.67c-0.63,2.17-2.59,3.89-5.03,4.37c-0.45,0.09-0.9,0.12-1.35,0.12
			c-0.9,0-1.81-0.15-2.65-0.48c-1.42-0.57-2.65-1.51-3.71-2.86l2.77-2.17c0.63,0.84,1.39,1.45,2.2,1.75
			c0.66,0.27,1.39,0.33,2.05,0.18c1.15-0.21,2.08-0.96,2.35-1.87c0.3-1.02-0.39-1.93-1.02-2.53c-0.99-0.93-2.62-2.53-2.74-2.65
			l-2.74-2.59c-0.84-0.81-1.42-1.72-1.72-2.68c-0.3-0.93-0.33-1.93-0.06-2.83c0.27-0.96,0.84-1.81,1.66-2.5
			c0.75-0.63,1.69-1.08,2.68-1.27c1.08-0.24,2.23-0.15,3.31,0.24c1.14,0.45,2.17,1.21,3.04,2.26l-2.74,2.2
			c-1.14-1.39-2.32-1.39-2.95-1.27c-0.78,0.15-1.45,0.66-1.63,1.3c-0.12,0.42-0.09,1.11,0.84,2.02l3.74,3.58
			c0.54,0.54,1.21,1.17,1.69,1.63c0.96,0.87,1.63,1.87,1.96,2.92C397.95,95.56,397.98,96.64,397.67,97.67z"/>
		<path id="XMLID_172_" class="st20" d="M403.78,100.38c-0.87-0.66-1.54-1.48-1.99-2.41c-0.51-1.02-0.75-2.17-0.75-3.4V79.8h3.49
			v14.76c0,1.33,0.48,2.35,1.39,3.04c0.84,0.66,2.08,1.05,3.4,1.05c1.29,0,2.53-0.39,3.4-1.05c0.9-0.69,1.36-1.72,1.36-3.04V79.8
			h3.52v14.76c0,1.24-0.27,2.38-0.75,3.4c-0.48,0.93-1.14,1.75-1.99,2.41c-1.48,1.14-3.43,1.78-5.54,1.78
			C407.22,102.16,405.26,101.52,403.78,100.38z"/>
		<path id="XMLID_179_" class="st20" d="M439.57,102.16V90.29l-6.99,10.42l-7.02-10.42v11.87h-3.49V78.78l10.51,15.66l10.51-15.66
			v23.38H439.57z"/>
		<path id="XMLID_222_" class="st20" d="M451.24,88.9h8.16v3.16h-8.16v6.93h9.91v3.16h-9.94h-3.46V79.8h3.46h9.94v3.13h-9.91V88.9z"
			/>
	</g>
	<g id="XMLID_380_" class="st19">
		<g>
			<g id="XMLID_65_">
				<rect id="XMLID_66_" x="347.59" y="116.55" class="st20" width="117.2" height="5.84"/>
			</g>
			<g id="XMLID_63_">
				<rect id="XMLID_64_" x="347.59" y="131.18" class="st20" width="117.2" height="5.84"/>
			</g>
		</g>
	</g>
	<g id="XMLID_157_">
		<g id="XMLID_158_">
			<ellipse id="XMLID_156_" class="st11" cx="85.29" cy="516.49" rx="57.66" ry="12.47"/>
			<g id="XMLID_166_">
				<g id="XMLID_175_">
					<path id="XMLID_288_" class="st3" d="M136.52,436.84H34.07c0,0-0.64,3.93-1.11,10.17c-1.67-0.25-3.39-0.37-5.14-0.32
						c-15.8,0.47-28.27,13.71-27.8,29.51c0.47,15.8,13.71,28.27,29.51,27.8c3.66-0.11,7.15-0.91,10.33-2.27
						c7.04,16,20.35,28.33,44.91,27.13C151.03,525.64,136.52,436.84,136.52,436.84z M29.25,494.85
						c-10.75,0.32-19.75-8.16-20.07-18.91c-0.32-10.75,8.16-19.75,18.91-20.07c1.52-0.05,3,0.1,4.43,0.39
						c-0.22,10.69,0.51,24.31,4.21,36.86C34.44,494.15,31.91,494.77,29.25,494.85z"/>
					<path id="XMLID_49_" class="st8" d="M136.52,436.84c0,3.61-22.94,6.54-51.23,6.54s-51.23-2.93-51.23-6.54
						c0-3.61,22.94-6.54,51.23-6.54S136.52,433.23,136.52,436.84z"/>
				</g>
			</g>
			<path class="st21" d="M136.52,436.84c0,2.66-12.47,4.95-30.36,5.97c0.52,4.58,0.79,9.28,0.79,14.08
				c0,29.8-10.44,56.14-26.41,72.06c1.37,0.02,2.77,0,4.22-0.07C151.03,525.64,136.52,436.84,136.52,436.84z"/>
		</g>
		<g id="XMLID_153_">
			<path id="XMLID_45_" class="st22" d="M73.48,369.36c0,0-6.17,9.43-6.05,21.63s8.39,14.14,9.27,21.91s-10.29,18.87-10.29,18.87
				s14.53-6.32,14.9-18.38c0.37-12.06-5.14-11.29-9.22-20.29C68.01,384.1,73.48,369.36,73.48,369.36z"/>
			<path id="XMLID_155_" class="st22" d="M91.84,368.89c0,0-6.58,10.06-6.45,23.07c0.13,13.01,8.94,15.08,9.89,23.37
				c0.95,8.29-10.98,20.12-10.98,20.12s15.49-6.74,15.89-19.6s-5.48-12.04-9.84-21.63S91.84,368.89,91.84,368.89z"/>
		</g>
	</g>
	<g id="XMLID_282_">
		
			<rect id="XMLID_318_" x="235.49" y="237.53" transform="matrix(0.9765 -0.2156 0.2156 0.9765 -57.8117 66.5191)" class="st12" width="81.1" height="121.5"/>
		
			<rect id="XMLID_17_" x="203.45" y="235.83" transform="matrix(0.9765 -0.2156 0.2156 0.9765 -57.8928 62.3617)" class="st13" width="106.97" height="121.5"/>
		<g id="XMLID_280_">
			<g id="_x33_FbygY.tif">
				<g id="XMLID_252_">
					<path id="XMLID_276_" class="st23" d="M226.43,253.11c-0.01,0.04-0.03,0.08-0.03,0.12c0.1,0.54,0.21,1.08,0.3,1.63
						c0.17,1,0.34,2.01,0.5,3.02c0.07,0.48,0.1,0.96,0.15,1.45c-0.36,0.08-0.7,0.16-1.08,0.24c-0.26-0.4-0.53-0.82-0.8-1.24
						c-0.77-1.2-1.54-2.39-2.32-3.58c-0.05-0.07-0.18-0.15-0.25-0.13c-1.57,0.34-3.14,0.69-4.73,1.04
						c1.67,7.57,3.34,15.13,5.02,22.72c0.53,0,1.07-0.02,1.62,0c0.68,0.02,1.36,0.07,2.04,0.11c0.06,0,0.15,0.09,0.17,0.16
						c0.08,0.32,0.15,0.64,0.22,0.99c-4.36,0.96-8.71,1.92-13.08,2.89c-0.08-0.36-0.16-0.72-0.26-1.17c1.1-0.56,2.24-1.13,3.39-1.72
						c-1.66-7.52-3.33-15.08-5-22.65c-0.08,0.01-0.14,0.02-0.21,0.03c-1.48,0.32-2.95,0.65-4.43,0.97
						c-0.19,0.04-0.26,0.12-0.29,0.31c-0.24,1.68-0.48,3.35-0.73,5.03c-0.03,0.21-0.05,0.41-0.08,0.62
						c-0.34,0.07-0.66,0.15-1.01,0.22c-0.09-0.21-0.19-0.41-0.26-0.62c-0.22-0.72-0.43-1.44-0.64-2.16
						c-0.18-0.6-0.35-1.21-0.51-1.82c-0.25-0.93-0.48-1.86-0.73-2.79c7.58-1.67,15.16-3.35,22.74-5.02
						C226.23,252.2,226.33,252.66,226.43,253.11z"/>
				</g>
			</g>
			<g id="XMLID_278_" class="st24">
				
					<rect id="XMLID_256_" x="233.61" y="245.51" transform="matrix(0.9765 -0.2156 0.2156 0.9765 -47.1325 62.5043)" class="st23" width="58.72" height="3.62"/>
				
					<rect id="XMLID_259_" x="235.79" y="255.38" transform="matrix(0.9765 -0.2156 0.2156 0.9765 -49.2093 63.2062)" class="st23" width="58.72" height="3.62"/>
				
					<rect id="XMLID_261_" x="237.97" y="265.25" transform="matrix(0.9765 -0.2156 0.2156 0.9765 -51.2861 63.9081)" class="st23" width="58.72" height="3.62"/>
				<g id="XMLID_258_">
					
						<rect id="XMLID_263_" x="210.25" y="281.18" transform="matrix(0.9765 -0.2156 0.2156 0.9765 -55.0089 61.6342)" class="st23" width="89.58" height="3.62"/>
					
						<rect id="XMLID_265_" x="213.04" y="293.79" transform="matrix(0.9765 -0.2156 0.2156 0.9765 -57.6604 62.5303)" class="st23" width="89.58" height="3.62"/>
					
						<rect id="XMLID_267_" x="215.51" y="304.97" transform="matrix(0.9765 -0.2156 0.2156 0.9765 -60.014 63.3258)" class="st23" width="89.58" height="3.62"/>
					
						<rect id="XMLID_269_" x="217.98" y="316.16" transform="matrix(0.9765 -0.2156 0.2156 0.9765 -62.3677 64.1212)" class="st23" width="89.58" height="3.62"/>
					
						<rect id="XMLID_271_" x="220.45" y="327.35" transform="matrix(0.9765 -0.2156 0.2156 0.9765 -64.7214 64.9167)" class="st23" width="89.58" height="3.62"/>
					
						<rect id="XMLID_274_" x="222.92" y="338.54" transform="matrix(0.9765 -0.2156 0.2156 0.9765 -67.0751 65.7122)" class="st23" width="89.58" height="3.62"/>
				</g>
			</g>
		</g>
	</g>
	<g id="V5Ch3x.tif">
		<g>
			<g id="XMLID_83_">
				<path id="XMLID_87_" class="st2" d="M546.21,79.96c3.4,2.37,6.78,4.76,10.15,7.17c1.39,0.99,1.56,1.97,0.72,3.54
					c-1.21,2.27-2.36,4.58-3.66,6.81c-1.18,2.01-1.46,3.84,0.34,5.66c0.45,0.45,0.59,1.19,1.03,1.66c0.42,0.45,1.01,0.98,1.56,1.02
					c3.42,0.22,6.86,0.33,10.29,0.44c1.45,0.05,2.49,0.63,2.71,2.11c0.61,4.05,1.18,8.1,1.69,12.17c0.15,1.21-0.41,2.2-1.63,2.6
					c-3.21,1.05-6.42,2.11-9.67,3.04c-1.37,0.39-2.14,1.03-2.29,2.52c-0.1,0.98-0.49,1.96-0.89,2.88c-0.38,0.86-0.26,1.44,0.41,2.13
					c2.31,2.4,4.54,4.88,6.81,7.32c1.09,1.17,1.2,2.11,0.29,3.2c-2.58,3.11-5.16,6.23-7.76,9.32c-1.13,1.34-2.15,1.53-3.76,0.77
					c-2.74-1.3-5.52-2.51-8.19-3.94c-1.46-0.78-2.62-0.87-3.94,0.21c-0.69,0.57-1.55,0.96-2.4,1.26c-0.88,0.31-1.09,0.88-1.14,1.71
					c-0.19,3.17-0.44,6.34-0.63,9.52c-0.09,1.5-0.7,2.52-2.28,2.74c-4.15,0.59-8.31,1.18-12.47,1.74c-1.44,0.19-2.41-0.38-2.9-1.82
					c-0.96-2.77-2.06-5.48-2.96-8.27c-0.48-1.5-1.19-2.41-2.88-2.5c-1.09-0.06-2.15-0.57-3.25-0.67c-0.65-0.06-1.49,0.07-1.98,0.45
					c-2.64,2.11-5.19,4.34-7.8,6.5c-1.42,1.18-2.29,1.19-3.8,0.12c-3.09-2.19-6.18-4.4-9.26-6.61c-1.62-1.16-1.84-1.97-0.94-3.72
					c1.18-2.29,2.26-4.65,3.63-6.82c1.21-1.93,1.55-3.58-0.2-5.32c-0.41-0.41-0.68-1.01-0.9-1.57c-0.37-0.9-0.9-1.25-1.94-1.27
					c-3.38-0.05-6.76-0.23-10.14-0.38c-1.72-0.07-2.46-0.73-2.69-2.46c-0.5-3.91-0.97-7.83-1.42-11.74
					c-0.19-1.66,0.33-2.44,1.91-2.96c2.78-0.92,5.53-1.95,8.37-2.67c2.09-0.54,3.41-1.45,3.53-3.74c0.04-0.68,0.32-1.39,0.63-2.01
					c0.42-0.85,0.27-1.43-0.4-2.11c-2.24-2.26-4.42-4.58-6.6-6.9c-1.29-1.37-1.34-2.43-0.14-3.88c2.42-2.92,4.86-5.82,7.32-8.7
					c1.27-1.49,2.16-1.66,4.01-0.83c2.58,1.16,5.23,2.2,7.71,3.54c1.68,0.91,3.03,0.93,4.51-0.27c0.57-0.47,1.3-0.8,2.01-1.04
					c0.98-0.33,1.24-0.97,1.29-1.92c0.17-3.12,0.39-6.25,0.62-9.37c0.14-1.88,0.71-2.49,2.57-2.75c3.9-0.56,7.81-1.1,11.71-1.64
					c1.98-0.27,2.69,0.17,3.42,2.11c0.82,2.17,1.78,4.31,2.38,6.54c0.67,2.5,1.84,4.11,4.65,4.08c0.63-0.01,1.3,0.24,1.9,0.47
					c0.79,0.31,1.37,0.18,2.03-0.39c2.5-2.13,5.05-4.2,7.61-6.25c0.58-0.47,1.25-0.81,1.91-1.23
					C545.47,79.72,545.91,79.75,546.21,79.96z M500.44,116.98c-1.96,9.58,3.27,18.91,12.73,22.69c10.2,4.07,22.69-0.19,27.36-9.54
					c7.26-14.56-2.48-27.78-15.87-29.58c-1.88-0.25-3.82-0.13-5.72-0.18C509.69,101.82,502.18,108.49,500.44,116.98z"/>
				<g id="XMLID_84_">
					<g>
						<path class="st5" d="M436.86,182.35c0.72-1.56,1.37-3.17,2.29-4.61c1.24-1.94,1.39-3.62-0.06-5.58
							c-0.68-0.91-1.21-1.4-2.33-1.43c-2.22-0.05-4.44-0.19-6.65-0.32c-1.65-0.1-2.38-0.75-2.59-2.39c-0.39-3.06-0.76-6.12-1.1-9.18
							c-0.19-1.75,0.33-2.55,1.96-3.11c2.15-0.74,4.29-1.51,6.46-2.15c1.1-0.32,1.77-0.83,1.86-2.02c0.04-0.5,0.2-0.99,0.38-1.46
							c0.33-0.85,0.15-1.49-0.5-2.17c-1.71-1.79-3.31-3.68-4.99-5.5c-0.88-0.96-1.02-2.09-0.29-3.05c2.1-2.78,4.31-5.48,6.52-8.17
							c0.65-0.79,1.51-0.89,2.46-0.38c1.47,0.78,3.06,1.37,4.45,2.27c2.01,1.3,3.92,1.93,5.9,0.1c0.42-0.39,0.91-0.94,0.96-1.46
							c0.2-2.36,0.24-4.74,0.36-7.11c0.09-1.91,0.72-2.62,2.61-2.9c2.9-0.43,5.8-0.83,8.71-1.22c1.83-0.24,2.71,0.32,3.34,2.08
							c0.53,1.47,1.18,2.92,1.5,4.44c0.5,2.44,1.65,3.91,4.3,4.11c0.82,0.06,1.38,0.1,2.01-0.49c1.76-1.66,3.57-3.28,5.39-4.88
							c1.28-1.13,2.32-1.15,3.66-0.11c2.36,1.83,4.68,3.69,7.04,5.52c1.22,0.95,1.51,2.09,0.86,3.47c-0.71,1.51-1.31,3.09-2.22,4.47
							c-1.4,2.13-1.61,4.04,0.07,6.12c0.51,0.63,0.83,1.1,1.74,1.11c2.52,0.05,5.04,0.24,7.56,0.37c1.3,0.06,2.12,0.77,2.31,2
							c0.51,3.24,0.97,6.5,1.35,9.76c0.14,1.22-0.23,2.28-1.63,2.71c-1.83,0.56-3.6,1.36-5.46,1.77c-2.3,0.5-3.48,1.8-3.56,4.08
							c-0.02,0.66,0.11,1.49,0.5,1.98c1.49,1.91,3.13,3.7,4.69,5.55c0.78,0.93,1.12,2.02,0.33,3.05c-2.05,2.69-4.15,5.35-6.3,7.96
							c-0.9,1.09-2.1,1.3-3.41,0.59c-1.38-0.74-2.85-1.33-4.16-2.17c-2-1.29-3.93-1.94-5.89-0.05c-0.41,0.39-0.9,0.92-0.94,1.42
							c-0.21,2.41-0.26,4.84-0.41,7.25c-0.12,1.85-0.65,2.43-2.42,2.7c-2.9,0.43-5.8,0.84-8.71,1.22c-1.66,0.22-2.43-0.26-3-1.84
							c-0.55-1.52-1.21-3.03-1.51-4.6c-0.5-2.59-1.8-4.14-4.54-4.16c-0.62,0-1.39,0.08-1.83,0.45c-1.83,1.51-3.55,3.15-5.32,4.73
							c-1.5,1.34-2.46,1.41-4.02,0.21c-2.36-1.82-4.72-3.65-7.03-5.53c-0.52-0.42-0.83-1.08-1.26-1.66
							C436.49,183.48,436.61,182.89,436.86,182.35z M481.92,156.18c-1.44-10.06-10.13-16.69-20.09-15.31
							c-9.77,1.35-16.63,10.36-15.27,20.06c1.36,9.76,10.41,16.51,20.3,15.16C476.41,174.78,483.28,165.71,481.92,156.18z"/>
					</g>
				</g>
			</g>
		</g>
	</g>
	<g id="XMLID_328_">
		
			<rect id="XMLID_325_" x="387.69" y="238.42" transform="matrix(0.9455 0.3256 -0.3256 0.9455 112.8987 -132.1285)" class="st14" width="127.02" height="65.64"/>
		<g id="XMLID_308_">
			<g id="XMLID_224_">
				<g id="XMLID_226_">
					<path id="XMLID_321_" class="st25" d="M427.14,251.84c0.62-3.49-1.37-7.01-4.83-8.2c-1.54-0.53-3.13-0.52-4.57-0.07
						c-2.15,0.67-3.96,2.32-4.75,4.61c-0.4,1.16-0.49,2.35-0.31,3.49c0.01,0.08,0.03,0.16,0.04,0.24c0.02,0.09,0.04,0.18,0.06,0.27
						c0.54,2.39,2.27,4.46,4.76,5.32c2.22,0.76,4.55,0.4,6.38-0.79c0.11-0.07,0.22-0.14,0.32-0.22c0.05-0.04,0.11-0.08,0.16-0.12
						c1.1-0.84,1.97-2.01,2.45-3.41C426.98,252.59,427.07,252.22,427.14,251.84z"/>
					<path id="XMLID_319_" class="st26" d="M427.36,261.37c0.16-0.11,0.32-0.23,0.47-0.34
						C427.67,261.14,427.51,261.25,427.36,261.37L427.36,261.37z"/>
					<path id="XMLID_312_" class="st26" d="M424.24,256.49c-0.1,0.08-0.21,0.15-0.32,0.22
						C424.03,256.64,424.13,256.57,424.24,256.49z"/>
					<path id="XMLID_219_" class="st26" d="M432.82,252.93L432.82,252.93c-0.03,0.18-0.07,0.36-0.11,0.54
						C432.75,253.3,432.78,253.12,432.82,252.93z"/>
					<path id="XMLID_201_" class="st26" d="M427.14,251.84c-0.07,0.37-0.16,0.74-0.29,1.11c-0.48,1.41-1.36,2.57-2.45,3.41
						c0.03-0.03,0.07-0.05,0.1-0.08l3.37,4.7c1.99-1.51,3.58-3.61,4.45-6.16c0.15-0.44,0.28-0.89,0.38-1.34l-5.58-1.54
						C427.12,251.92,427.13,251.88,427.14,251.84z"/>
					<path id="XMLID_182_" class="st26" d="M407.11,253.35L407.11,253.35c-0.02-0.09-0.04-0.18-0.05-0.27
						C407.07,253.17,407.09,253.26,407.11,253.35z"/>
					<path id="XMLID_177_" class="st26" d="M415.23,238.34c-0.05,0.02-0.09,0.04-0.14,0.06
						C415.13,238.38,415.18,238.36,415.23,238.34L415.23,238.34z"/>
					<path id="XMLID_174_" class="st27" d="M412.68,251.68c-0.17-1.14-0.09-2.33,0.31-3.49c0.79-2.29,2.6-3.94,4.75-4.61
						c-0.02,0.01-0.04,0.01-0.06,0.02l-2.68-5.17c-3.39,1.37-6.19,4.15-7.47,7.87c-0.67,1.95-0.85,3.95-0.61,5.86l5.74-0.63
						C412.67,251.58,412.68,251.63,412.68,251.68z"/>
					<path id="XMLID_159_" class="st3" d="M417.74,243.58c1.44-0.45,3.03-0.46,4.57,0.07c3.46,1.19,5.45,4.71,4.83,8.2
						c-0.01,0.04-0.01,0.08-0.02,0.12l5.58,1.54l0,0c0-0.01,0-0.02,0-0.02c0.04-0.18,0.08-0.36,0.11-0.54
						c1.16-6.27-2.41-12.62-8.63-14.76c-3.03-1.04-6.19-0.91-8.96,0.16c-0.05,0.02-0.09,0.03-0.14,0.05
						c-0.03,0.01-0.06,0.02-0.09,0.03l0,0l2.68,5.17C417.7,243.59,417.72,243.59,417.74,243.58z"/>
					<path id="XMLID_48_" class="st2" d="M427.87,261l-3.37-4.7c-0.03,0.03-0.07,0.05-0.1,0.08c-0.05,0.04-0.11,0.08-0.16,0.12
						c-0.1,0.08-0.21,0.15-0.32,0.22c-1.83,1.19-4.16,1.55-6.38,0.79c-2.49-0.86-4.22-2.93-4.76-5.32
						c-0.02-0.09-0.04-0.18-0.06-0.27c-0.01-0.08-0.03-0.16-0.04-0.24c-0.01-0.05-0.02-0.09-0.02-0.14l-5.74,0.63l-0.01,0
						c0.02,0.15,0.04,0.3,0.06,0.45c0,0,0,0,0,0c0.02,0.15,0.05,0.29,0.08,0.44c0,0.01,0,0.01,0,0.02c0.02,0.09,0.04,0.18,0.06,0.27
						c0.94,4.33,4.05,8.07,8.54,9.62c4.09,1.41,8.39,0.67,11.7-1.6c0.16-0.11,0.32-0.22,0.48-0.34
						C427.84,261.02,427.85,261.01,427.87,261L427.87,261z"/>
				</g>
				<g id="XMLID_243_">
					<path id="XMLID_366_" class="st25" d="M461.88,263.81c0.62-3.49-1.37-7.01-4.83-8.2c-1.54-0.53-3.13-0.52-4.57-0.07
						c-2.15,0.67-3.96,2.32-4.75,4.61c-0.4,1.16-0.49,2.35-0.31,3.49c0.01,0.08,0.03,0.16,0.04,0.24c0.02,0.09,0.04,0.18,0.06,0.27
						c0.54,2.39,2.27,4.46,4.76,5.32c2.22,0.76,4.55,0.4,6.38-0.79c0.11-0.07,0.22-0.14,0.32-0.22c0.05-0.04,0.11-0.08,0.16-0.12
						c1.1-0.84,1.97-2,2.45-3.41C461.72,264.55,461.81,264.18,461.88,263.81z"/>
					<path id="XMLID_363_" class="st26" d="M462.1,273.33c0.16-0.11,0.32-0.23,0.47-0.34C462.42,273.11,462.26,273.22,462.1,273.33
						L462.1,273.33z"/>
					<path id="XMLID_360_" class="st26" d="M458.98,268.45c-0.1,0.08-0.21,0.15-0.32,0.22C458.77,268.6,458.87,268.53,458.98,268.45
						z"/>
					<path id="XMLID_356_" class="st26" d="M467.56,264.9L467.56,264.9c-0.03,0.18-0.07,0.36-0.11,0.54
						C467.49,265.26,467.52,265.08,467.56,264.9z"/>
					<path id="XMLID_353_" class="st0" d="M461.88,263.81c-0.07,0.37-0.16,0.74-0.29,1.11c-0.48,1.41-1.36,2.57-2.45,3.41
						c0.03-0.03,0.07-0.05,0.1-0.08l3.37,4.7c1.99-1.51,3.58-3.61,4.45-6.16c0.15-0.44,0.28-0.89,0.38-1.34l-5.58-1.54
						C461.86,263.89,461.87,263.85,461.88,263.81z"/>
					<path id="XMLID_347_" class="st26" d="M441.85,265.31L441.85,265.31c-0.02-0.09-0.04-0.18-0.05-0.27
						C441.82,265.13,441.83,265.22,441.85,265.31z"/>
					<path id="XMLID_300_" class="st26" d="M449.97,250.3c-0.05,0.02-0.09,0.04-0.14,0.06C449.87,250.34,449.92,250.32,449.97,250.3
						L449.97,250.3z"/>
					<path id="XMLID_298_" class="st27" d="M447.42,263.64c-0.17-1.14-0.09-2.33,0.31-3.49c0.79-2.29,2.6-3.94,4.75-4.61
						c-0.02,0.01-0.04,0.01-0.06,0.02l-2.68-5.17c-3.39,1.37-6.19,4.15-7.47,7.87c-0.67,1.95-0.85,3.95-0.61,5.86l5.74-0.63
						C447.41,263.55,447.42,263.59,447.42,263.64z"/>
					<path id="XMLID_295_" class="st3" d="M452.48,255.54c1.44-0.45,3.03-0.46,4.57,0.07c3.46,1.19,5.45,4.71,4.83,8.2
						c-0.01,0.04-0.01,0.08-0.02,0.12l5.58,1.54l0,0c0-0.01,0-0.02,0-0.02c0.04-0.18,0.08-0.36,0.11-0.54
						c1.16-6.27-2.41-12.62-8.62-14.76c-3.03-1.04-6.19-0.91-8.96,0.16c-0.05,0.02-0.09,0.03-0.14,0.05
						c-0.03,0.01-0.06,0.02-0.09,0.03l0,0l2.68,5.17C452.44,255.55,452.46,255.55,452.48,255.54z"/>
					<path id="XMLID_285_" class="st27" d="M462.61,272.96l-3.37-4.7c-0.03,0.03-0.07,0.05-0.1,0.08c-0.05,0.04-0.11,0.08-0.16,0.12
						c-0.1,0.08-0.21,0.15-0.32,0.22c-1.83,1.19-4.16,1.55-6.38,0.79c-2.49-0.86-4.22-2.93-4.76-5.32
						c-0.02-0.09-0.04-0.18-0.06-0.27c-0.01-0.08-0.03-0.16-0.04-0.24c-0.01-0.05-0.02-0.09-0.02-0.14l-5.74,0.63l-0.01,0
						c0.02,0.15,0.04,0.3,0.06,0.45c0,0,0,0,0,0c0.02,0.15,0.05,0.29,0.08,0.44c0,0.01,0,0.01,0,0.02c0.02,0.09,0.04,0.18,0.06,0.27
						c0.94,4.33,4.05,8.07,8.54,9.62c4.09,1.41,8.39,0.67,11.7-1.6c0.16-0.11,0.32-0.22,0.48-0.34
						C462.58,272.98,462.6,272.97,462.61,272.96L462.61,272.96z"/>
				</g>
				<g id="XMLID_367_">
					<path id="XMLID_431_" class="st25" d="M496.62,275.77c0.62-3.49-1.37-7.01-4.83-8.2c-1.54-0.53-3.13-0.52-4.57-0.07
						c-2.15,0.67-3.96,2.32-4.75,4.61c-0.4,1.16-0.49,2.35-0.31,3.49c0.01,0.08,0.03,0.16,0.04,0.24c0.02,0.09,0.04,0.18,0.06,0.27
						c0.54,2.39,2.27,4.46,4.76,5.32c2.22,0.76,4.55,0.4,6.38-0.79c0.11-0.07,0.22-0.14,0.32-0.22c0.05-0.04,0.11-0.08,0.16-0.12
						c1.1-0.84,1.97-2.01,2.45-3.41C496.46,276.51,496.55,276.14,496.62,275.77z"/>
					<path id="XMLID_425_" class="st26" d="M496.84,285.29c0.16-0.11,0.32-0.23,0.47-0.34C497.16,285.07,497,285.18,496.84,285.29
						L496.84,285.29z"/>
					<path id="XMLID_422_" class="st26" d="M493.72,280.42c-0.11,0.08-0.21,0.15-0.32,0.22
						C493.51,280.56,493.61,280.49,493.72,280.42z"/>
					<path id="XMLID_419_" class="st26" d="M502.3,276.86L502.3,276.86c-0.03,0.18-0.07,0.36-0.11,0.54
						C502.23,277.22,502.27,277.04,502.3,276.86z"/>
					<path id="XMLID_416_" class="st27" d="M496.62,275.77c-0.07,0.37-0.16,0.74-0.29,1.11c-0.48,1.41-1.36,2.57-2.45,3.41
						c0.03-0.03,0.07-0.05,0.1-0.08l3.37,4.7c1.99-1.51,3.58-3.61,4.45-6.16c0.15-0.44,0.28-0.89,0.38-1.34l-5.58-1.54
						C496.61,275.85,496.61,275.81,496.62,275.77z"/>
					<path id="XMLID_411_" class="st26" d="M476.59,277.27L476.59,277.27c-0.02-0.09-0.04-0.18-0.05-0.27
						C476.56,277.09,476.57,277.18,476.59,277.27z"/>
					<path id="XMLID_402_" class="st26" d="M484.71,262.26c-0.05,0.02-0.09,0.04-0.14,0.06
						C484.62,262.3,484.66,262.28,484.71,262.26L484.71,262.26z"/>
					<path id="XMLID_386_" class="st27" d="M482.17,275.6c-0.17-1.14-0.09-2.33,0.31-3.49c0.79-2.29,2.6-3.94,4.75-4.61
						c-0.02,0.01-0.04,0.01-0.06,0.02l-2.68-5.17c-3.39,1.37-6.19,4.15-7.47,7.87c-0.67,1.95-0.85,3.95-0.61,5.86l5.74-0.63
						C482.15,275.51,482.16,275.56,482.17,275.6z"/>
					<path id="XMLID_385_" class="st3" d="M487.22,267.51c1.44-0.45,3.03-0.46,4.57,0.07c3.46,1.19,5.45,4.71,4.83,8.2
						c-0.01,0.04-0.01,0.08-0.02,0.12l5.58,1.54l0,0c0-0.01,0-0.02,0-0.02c0.04-0.18,0.08-0.36,0.11-0.54
						c1.16-6.27-2.41-12.62-8.62-14.76c-3.03-1.04-6.19-0.91-8.96,0.16c-0.05,0.02-0.09,0.03-0.14,0.05
						c-0.03,0.01-0.06,0.02-0.09,0.03l0,0l2.68,5.17C487.18,267.52,487.2,267.51,487.22,267.51z"/>
					<path id="XMLID_368_" class="st27" d="M497.35,284.92l-3.37-4.7c-0.03,0.03-0.07,0.05-0.1,0.08c-0.05,0.04-0.11,0.08-0.16,0.12
						c-0.11,0.08-0.21,0.15-0.32,0.22c-1.83,1.19-4.16,1.55-6.38,0.79c-2.49-0.86-4.22-2.93-4.76-5.32
						c-0.02-0.09-0.04-0.18-0.06-0.27c-0.01-0.08-0.03-0.16-0.04-0.24c-0.01-0.05-0.02-0.09-0.02-0.14l-5.74,0.63l-0.01,0
						c0.02,0.15,0.04,0.3,0.06,0.45c0,0,0,0,0,0c0.02,0.15,0.05,0.29,0.08,0.44c0,0.01,0,0.01,0,0.02c0.02,0.09,0.04,0.18,0.06,0.27
						c0.94,4.33,4.05,8.07,8.54,9.62c4.09,1.41,8.39,0.67,11.7-1.6c0.16-0.11,0.32-0.22,0.48-0.34
						C497.32,284.94,497.34,284.93,497.35,284.92L497.35,284.92z"/>
				</g>
			</g>
			<g id="XMLID_292_">
				
					<rect id="XMLID_289_" x="400.49" y="269.76" transform="matrix(0.9455 0.3256 -0.3256 0.9455 110.613 -119.6779)" class="st27" width="24.74" height="1.75"/>
				
					<rect id="XMLID_303_" x="399.17" y="273.59" transform="matrix(0.9455 0.3256 -0.3256 0.9455 111.7887 -119.0395)" class="st27" width="24.74" height="1.75"/>
				
					<rect id="XMLID_305_" x="397.85" y="277.42" transform="matrix(0.9455 0.3256 -0.3256 0.9455 112.9644 -118.4011)" class="st27" width="24.74" height="1.75"/>
			</g>
			<g id="XMLID_309_">
				
					<rect id="XMLID_327_" x="434.95" y="281.62" transform="matrix(0.9455 0.3256 -0.3256 0.9455 116.3547 -130.2519)" class="st27" width="24.74" height="1.75"/>
				
					<rect id="XMLID_324_" x="433.63" y="285.46" transform="matrix(0.9455 0.3256 -0.3256 0.9455 117.5304 -129.6135)" class="st27" width="24.74" height="1.75"/>
				
					<rect id="XMLID_313_" x="432.31" y="289.29" transform="matrix(0.9455 0.3256 -0.3256 0.9455 118.7061 -128.9751)" class="st27" width="24.74" height="1.75"/>
			</g>
			<g id="XMLID_331_">
				
					<rect id="XMLID_359_" x="469.42" y="293.49" transform="matrix(0.9455 0.3256 -0.3256 0.9455 122.0964 -140.8258)" class="st27" width="24.74" height="1.75"/>
				
					<rect id="XMLID_354_" x="468.1" y="297.32" transform="matrix(0.9455 0.3256 -0.3256 0.9455 123.2721 -140.1874)" class="st27" width="24.74" height="1.75"/>
				
					<rect id="XMLID_337_" x="466.78" y="301.16" transform="matrix(0.9455 0.3256 -0.3256 0.9455 124.4478 -139.549)" class="st27" width="24.74" height="1.75"/>
			</g>
		</g>
	</g>
	<g id="XMLID_102_">
		<g id="XMLID_323_">
			<ellipse id="XMLID_307_" class="st11" cx="706.42" cy="552.05" rx="140.54" ry="22.37"/>
			<g id="XMLID_311_">
				<g id="XMLID_349_">
					<path id="XMLID_301_" class="st2" d="M632.69,503.05v50.48h176.29c10.94,0,20.29-6.99,23.79-16.75c0.94-2.64,1.46-5.5,1.46-8.5
						c0-6.95-2.82-13.26-7.38-17.85c-4.59-4.57-10.9-7.38-17.87-7.38H632.69z"/>
					<path id="XMLID_296_" class="st28" d="M672.15,536.78v16.75h136.82c10.94,0,20.29-6.99,23.79-16.75H672.15z"/>
					<path id="XMLID_291_" class="st29" d="M595,503.04l0,50.49l115.58,0c13.94,0,25.25-11.31,25.25-25.25
						c0-6.95-2.83-13.27-7.39-17.86c-4.59-4.56-10.91-7.39-17.86-7.39L595,503.04z"/>
					<path id="XMLID_273_" class="st14" d="M595,511.7l0,32.37l108.77,0c8.94,0,16.19-7.24,16.19-16.19c0-4.47-1.82-8.51-4.73-11.45
						c-2.94-2.91-6.98-4.73-11.45-4.73L595,511.7z"/>
				</g>
				<g id="XMLID_341_">
					<path id="XMLID_59_" class="st30" d="M629.28,402.71v50.49l176.28,0c13.94,0,25.25-11.31,25.25-25.25
						c0-6.95-2.83-13.27-7.39-17.86c-4.59-4.56-10.91-7.39-17.86-7.39L629.28,402.71z"/>
					<path id="XMLID_54_" class="st0" d="M669.23,419.56v-16.75h136.82c10.94,0,20.29,6.99,23.79,16.75H669.23z"/>
					<path id="XMLID_53_" class="st31" d="M595,402.71v50.49l115.58,0c13.94,0,25.25-11.31,25.25-25.25
						c0-6.95-2.83-13.27-7.39-17.86c-4.59-4.56-10.91-7.39-17.86-7.39L595,402.71z"/>
					<path id="XMLID_52_" class="st14" d="M595,411.36v32.37l108.77,0c8.95,0,16.19-7.24,16.19-16.19c0-4.47-1.82-8.51-4.73-11.45
						c-2.94-2.91-6.98-4.73-11.45-4.73L595,411.36z"/>
				</g>
				<g id="XMLID_316_">
					<path id="XMLID_51_" class="st3" d="M620.17,453.49v50.5h176.29c13.94,0,25.23-11.31,25.23-25.25c0-4.28-1.07-8.32-2.95-11.86
						c-1.18-2.21-2.69-4.24-4.43-6.01c-4.59-4.57-10.9-7.38-17.85-7.38H620.17z"/>
					<path id="XMLID_50_" class="st21" d="M624.83,453.49v13.39h193.9c-1.18-2.21-2.69-4.24-4.43-6.01
						c-4.59-4.57-10.9-7.38-17.85-7.38H624.83z"/>
					<path id="XMLID_227_" class="st21" d="M624.83,504.01v-13.39l193.9,0c-1.18,2.21-2.69,4.24-4.43,6.01
						c-4.59,4.57-10.9,7.38-17.85,7.38L624.83,504.01z"/>
					<path id="XMLID_228_" class="st32" d="M574.03,453.49v50.49l105.79,0c13.94,0,25.25-11.31,25.25-25.25
						c0-6.95-2.83-13.27-7.39-17.86c-4.59-4.56-10.91-7.39-17.86-7.39L574.03,453.49z"/>
					<path id="XMLID_236_" class="st14" d="M574.03,462.15v32.37l98.98,0c8.95,0,16.19-7.24,16.19-16.19
						c0-4.47-1.82-8.51-4.73-11.45c-2.94-2.92-6.98-4.73-11.45-4.73L574.03,462.15z"/>
				</g>
			</g>
		</g>
	</g>
</g>
</svg>
